<svg xmlns="http://www.w3.org/2000/svg" width="21" height="26" viewBox="0 0 21 26" fill="none"><g clip-path="url(#clip0_132_323)"><mask id="mask0_132_323" style="mask-type:luminance" maskUnits="userSpaceOnUse" x="0" y="0" width="21" height="26"><path d="M0.0258789 0.0532227H20.0259V25.0532H0.0258789V0.0532227Z" fill="white"></path></mask><g mask="url(#mask0_132_323)"><path fill-rule="evenodd" clip-rule="evenodd" d="M2.69263 0.0532227H18.0251C18.3785 0.0542867 18.7171 0.191504 18.967 0.434912C19.2169 0.678321 19.3578 1.00815 19.3589 1.35237V23.7554C19.3574 24.099 19.2168 24.428 18.9675 24.6711C18.7183 24.9141 18.3806 25.0515 18.0279 25.0532H2.69263C2.33936 25.0525 2.00075 24.9156 1.75082 24.6724C1.5009 24.4292 1.35998 24.0995 1.35889 23.7554V1.35237C1.35998 1.00815 1.50085 0.678321 1.75074 0.434912C2.00063 0.191504 2.33924 0.0542867 2.69263 0.0532227ZM5.48484 20.0403L6.84067 18.3363L7.20103 20.0403H5.48484ZM7.39385 20.9343C7.46043 21.1961 7.49019 21.3131 7.95764 21.3341L7.96179 21.3327H8.63004L7.66356 17.6289H6.99531C6.3312 17.6289 6.27597 17.6518 5.91699 18.0848L3.20394 21.3341L3.41367 21.3343C4.07192 21.3352 4.31103 21.3356 4.4844 21.229C4.58331 21.1682 4.66082 21.0726 4.78255 20.9224L4.78897 20.9145L4.99883 20.6549H7.32943L7.3888 20.9145L7.39385 20.9343ZM13.0265 18.0268C12.9937 18.1101 12.9341 18.1808 12.8567 18.2285C12.7366 18.3011 12.5281 18.3146 12.1291 18.3146H11.4801L10.5923 21.3338C9.56512 21.3338 9.4878 21.3123 9.65486 20.7569L10.3728 18.3092H8.90653C9.09568 17.6878 9.14539 17.6367 9.87301 17.6367H13.1466C13.1143 17.7662 13.0742 17.8938 13.0265 18.0187V18.0268ZM14.6421 18.3084H15.5105C16.5074 18.3084 16.4977 18.6191 16.4176 18.8719C16.25 19.4638 16.2384 19.4638 15.2314 19.4637H15.1902H14.3024L14.6421 18.3084ZM14.1133 20.1146H15.0121L15.0107 20.12C17.0665 20.12 17.4062 19.4058 17.565 18.8773C17.7237 18.3488 17.7141 17.6494 15.6789 17.6494H14.7125H14.1933C13.6911 17.6864 13.6317 17.8927 13.5562 18.1546C13.5493 18.1785 13.5423 18.2029 13.5347 18.2277L12.7961 20.748C12.7063 21.0453 12.6967 21.1824 12.7961 21.2618C12.9407 21.3534 13.3738 21.3465 13.6287 21.3425C13.673 21.3418 13.7122 21.3411 13.7432 21.3411L13.9227 20.7494L14.1133 20.1146ZM3.99725 9.67099L3.92959 9.62795C3.92782 9.58093 3.91523 9.53489 3.89277 9.49322C3.87031 9.45156 3.83854 9.41534 3.79981 9.38722V9.21642V9.01737V8.88289C3.79981 8.84926 3.81914 8.84657 3.83709 8.84792C3.87937 8.87324 3.91832 8.9035 3.95307 8.93803C4.02527 9.00171 4.10668 9.05472 4.19469 9.09538C4.27657 9.148 4.37272 9.17563 4.47082 9.17472H4.56609C4.59012 9.17813 4.61239 9.18898 4.6296 9.20566C4.63927 9.21507 4.64065 9.22852 4.6296 9.25676C4.6035 9.29383 4.57238 9.32731 4.5371 9.35628C4.53495 9.35838 4.51721 9.37294 4.49001 9.39528C4.41227 9.45911 4.25739 9.5863 4.16845 9.66695L3.99725 9.67099ZM4.03315 6.41906C4.20849 5.99543 4.84499 4.80521 5.81147 5.23153C6.66749 5.61079 6.60951 6.77411 6.26571 7.50035C5.76591 8.55473 4.99548 9.22852 4.26924 8.83582C3.49468 8.41756 3.75701 7.08747 4.03315 6.41503V6.41906ZM18.1783 10.5748C18.152 10.4779 18.0002 10.4268 18.0002 10.4268C18.0002 10.3085 17.8262 10.2695 17.8262 10.2695L17.8165 10.2574C17.782 10.1229 17.6301 10.1552 17.6301 10.1552V10.1256C17.6039 10.0368 17.4603 10.0664 17.4603 10.0664C17.3954 9.96014 17.2684 10.0543 17.2684 10.0543C17.257 10.0752 17.2401 10.0928 17.2195 10.1053C17.1989 10.1178 17.1753 10.1248 17.151 10.1256C16.9646 10.135 16.9467 10.2318 16.9467 10.2318L16.8984 10.3663C16.781 10.6044 16.8459 10.6972 16.8459 10.6972C16.8689 10.7407 16.8892 10.7857 16.9067 10.8316C16.9222 10.9488 16.9514 11.0638 16.9936 11.1746C16.8929 11.1921 16.8763 11.3091 16.8763 11.3091C16.8445 11.4194 16.5021 11.7825 16.5021 11.7825C16.411 11.8295 16.4759 11.9439 16.4759 11.9439C16.3269 12.0967 16.1601 12.2321 15.9788 12.3473C15.533 12.6344 15.1262 12.9751 14.768 13.3614C14.4465 13.3169 14.1195 13.3269 13.8015 13.3909V13.3318C13.5841 13.3883 13.3739 13.4681 13.1747 13.5698C13.1048 13.5899 13.0305 13.5899 12.9607 13.5698C12.4981 13.3318 11.6725 13.4044 11.6725 13.4044C11.4954 13.4389 11.3207 13.4838 11.1492 13.5389L10.3415 13.5739L10.2932 13.4394C10.2766 13.4017 10.2145 13.3788 10.2145 13.3788H10.2062C10.2061 13.3335 10.2 13.2883 10.1882 13.2444L10.1689 12.7642L10.3746 12.4953C10.4368 12.4953 10.3263 11.8443 10.3263 11.8443C10.3456 11.7435 10.1744 11.3709 10.1744 11.3709C10.1878 11.2857 10.1806 11.1985 10.1535 11.1164C10.1265 11.0342 10.0802 10.9593 10.0184 10.8975C9.95986 10.8248 9.91328 10.7435 9.88035 10.6568C9.85688 10.5613 9.55865 10.4067 9.35431 10.3381C9.14997 10.2695 8.77718 10.3381 8.34365 10.607C7.91011 10.876 7.83003 11.4449 7.83003 11.5296C7.83003 11.5745 7.87419 11.7148 7.91285 11.8377C7.94719 11.9468 7.97719 12.0422 7.9681 12.0447C7.96574 12.0454 7.9625 12.0455 7.95874 12.0456C7.93165 12.0466 7.87748 12.0485 7.93082 12.2599C7.99157 12.5006 8.29394 12.6835 8.29394 12.6835C8.35883 12.7037 8.48448 13.126 8.53418 13.3049L8.47757 13.3264L8.43201 13.4111L8.32708 13.4878C8.24653 13.5032 8.16476 13.5117 8.0827 13.5133C7.6982 13.4216 7.29796 13.4116 6.90911 13.4837L6.27538 13.1717L6.23258 13.2349C6.04812 13.1775 5.85416 13.1547 5.66097 13.1677C5.66097 13.1677 5.20673 12.2787 4.79114 11.9573V11.925C4.8166 11.9085 4.80729 11.86 4.79882 11.8159C4.79489 11.7954 4.79114 11.7759 4.79114 11.761C4.79114 11.7139 4.66136 11.5713 4.66136 11.5713L4.48187 11.2902C4.48187 11.2902 4.42112 11.1558 4.39765 11.0683C4.3962 11.0583 4.39201 11.0488 4.3855 11.0409C4.37899 11.033 4.37041 11.0269 4.36067 11.0233C4.35092 11.0197 4.34036 11.0188 4.33011 11.0206C4.31985 11.0223 4.31027 11.0268 4.30238 11.0334C4.26924 10.9406 4.25958 10.8437 4.29134 10.8195C4.37485 10.6008 4.44041 10.3759 4.48739 10.1471C4.49488 10.0866 4.4078 9.89363 4.35476 9.77607C4.33939 9.74201 4.32684 9.7142 4.32033 9.69788C4.50534 9.53919 4.85327 9.24331 4.94302 9.19221C5.63336 8.78874 6.24086 8.26962 6.52666 7.51918C6.97539 6.3424 6.75448 5.3324 5.97439 4.94642L5.94402 4.93162L5.90674 4.91414L5.8736 4.89935C5.12665 4.65189 4.27477 5.0688 3.74734 6.20388C3.40908 6.93146 3.39389 7.70477 3.57752 8.51977C3.62058 8.75852 3.63356 9.0015 3.61618 9.24331V9.29442L3.39941 9.33073C3.31105 9.36973 3.33314 9.42891 3.33314 9.42891L3.38975 9.74899L3.38008 9.75975C3.34839 9.76532 3.31996 9.78217 3.30031 9.80703C3.28066 9.83188 3.2712 9.86297 3.27377 9.89424L3.2641 9.905C3.15089 9.92382 3.15779 10.0906 3.15779 10.0906C3.13698 10.0941 3.11727 10.1022 3.10018 10.1143C3.08309 10.1264 3.06907 10.1421 3.0592 10.1603C3.04933 10.1785 3.04388 10.1986 3.04326 10.2192C3.04264 10.2397 3.04687 10.2602 3.05562 10.2789C2.95629 10.3422 3.01394 10.4263 3.05336 10.4838C3.05996 10.4934 3.06605 10.5023 3.07081 10.5102C3.10394 10.5654 3.25582 10.8962 3.25582 10.8962L3.06667 11.3817C2.84438 11.9062 2.62347 12.4267 2.62209 12.4267C2.6157 12.4432 2.6041 12.4573 2.58895 12.467L2.5641 12.4818C2.5641 12.4818 2.54477 12.4966 2.53924 12.545C2.60459 12.6159 2.68653 12.6703 2.7781 12.7037C2.8996 12.7642 2.94931 12.7723 2.99211 12.7656C3.0211 12.7293 3.0211 12.7118 3.01972 12.7024C3.0188 12.6961 3.01911 12.6898 3.01942 12.6835C3.01957 12.6804 3.01972 12.6773 3.01972 12.6741C3.01533 12.6583 3.01533 12.6416 3.01972 12.6257L3.37732 11.7677L3.51539 11.4476L3.54576 11.4853C3.53889 11.4876 3.53265 11.4915 3.52747 11.4965C3.5223 11.5015 3.51831 11.5076 3.51581 11.5142C3.51331 11.5209 3.51234 11.528 3.51298 11.5351C3.51363 11.5422 3.51586 11.549 3.51953 11.5552C3.5264 11.5727 3.53113 11.5876 3.53526 11.6005C3.54442 11.6292 3.55064 11.6487 3.57062 11.6682C3.6013 11.6937 3.62182 11.7289 3.62861 11.7677C3.63538 11.7929 3.63611 11.8253 3.6368 11.856C3.63766 11.8941 3.63846 11.9296 3.6507 11.9452L3.68798 12.0003C3.6923 12.028 3.70161 12.0555 3.71182 12.0855C3.7244 12.1226 3.73834 12.1637 3.74596 12.2142C3.75977 12.3056 3.79153 12.2747 3.79153 12.2747H3.8081C3.82159 12.3069 3.83691 12.3441 3.854 12.3857C4.03976 12.8375 4.43492 13.7988 4.97477 14.2853C5.13012 14.3175 5.27744 14.3792 5.40831 14.4669L5.39588 14.4857L5.3517 14.5583C5.3517 14.5583 5.50081 14.6309 5.61955 14.7036C5.92039 14.8843 6.23206 15.0473 6.5529 15.1917L6.71723 16.0233C5.41626 16.3662 4.22812 16.8857 3.20394 17.5442C5.2446 16.6269 7.72983 16.089 10.4111 16.089C13.091 16.089 15.5776 16.6269 17.6224 17.5495C16.0872 16.5615 14.181 15.884 12.0801 15.647C12.2344 15.344 12.552 15.2012 12.552 15.2012C12.661 15.1285 13.6054 15.0263 13.6054 15.0263V14.955C14.7763 14.7009 15.3561 14.2718 15.3561 14.2718C15.5909 14.2342 15.6171 14.175 15.6171 14.175C15.6679 14.122 15.7233 14.0734 15.7828 14.0298C16.4538 13.5886 17.1635 12.3661 17.1635 12.3661C17.1819 12.3735 17.2017 12.3768 17.2215 12.376C17.2414 12.3752 17.2608 12.3702 17.2785 12.3614C17.2962 12.3526 17.3117 12.3402 17.3241 12.325C17.3364 12.3098 17.3452 12.2922 17.3499 12.2734C17.4065 12.1967 17.7337 11.7865 17.7337 11.7865C17.829 11.7018 17.7723 11.6345 17.7723 11.6345L17.724 11.5754L17.742 11.5579C17.7655 11.532 17.7936 11.4721 17.8191 11.4176C17.8401 11.3728 17.8594 11.3316 17.8731 11.3158C17.9205 11.2391 17.963 11.1596 18.0002 11.0778C18.0358 10.9861 18.0763 10.8963 18.1217 10.8088C18.1472 10.7775 18.1654 10.7413 18.1752 10.7025C18.1849 10.6637 18.186 10.6234 18.1783 10.5842V10.5748ZM5.25392 21.8291H4.22531H3.94917C3.68811 21.8482 3.65781 21.9694 3.61561 22.1383L3.60814 22.168L3.21879 23.646C3.17598 23.8101 3.17184 23.8895 3.21879 23.9312C3.2901 23.9847 3.51587 23.9803 3.65044 23.9778C3.67477 23.9773 3.69616 23.9769 3.71307 23.9769L3.95331 23.0758H5.22216C5.32157 22.7154 5.30086 22.6898 4.8977 22.6898H4.06238L4.1825 22.2205H5.55214C5.57689 22.148 5.59627 22.0738 5.61013 21.9986C5.6296 21.8292 5.47825 21.8297 5.29028 21.8304L5.25392 21.8305V21.8291ZM5.68953 23.6461L6.17691 21.8291C6.71838 21.8292 6.76487 21.8433 6.68086 22.1479L6.19348 23.9769C5.64673 23.9769 5.60531 23.9648 5.68953 23.6461ZM9.27219 22.1237L8.94635 23.3435L8.17593 22.0564C8.04234 21.8248 7.99018 21.8248 7.68303 21.8251H7.65127H7.37513L7.01339 23.1875L6.88775 23.6407C6.80353 23.9635 6.84495 23.9756 7.39032 23.9756L7.80452 22.4451L8.58047 23.7241L8.58737 23.736C8.7067 23.9432 8.72535 23.9756 9.08442 23.9756H9.37298L9.95011 21.8237C9.40888 21.8237 9.35089 21.8318 9.2791 22.121L9.27219 22.1237ZM13.8092 23.5912H14.4071H14.4126C14.6266 23.5912 14.7232 23.6046 14.7647 23.6463C14.8216 23.6983 14.7789 23.8407 14.7515 23.9319C14.7464 23.9491 14.7417 23.9645 14.7384 23.9772H13.6215C13.1907 23.9772 13.1189 23.9772 13.2073 23.6423L13.6891 21.8294C13.7071 21.8294 13.7294 21.829 13.7547 21.8285C13.8924 21.8259 14.1164 21.8217 14.1875 21.8751C14.24 21.9168 14.2345 22.0015 14.1875 22.1696L13.8092 23.5912ZM15.5107 22.4712C15.4049 22.9187 15.8832 22.9879 16.3081 23.0495C16.366 23.0578 16.4229 23.0661 16.4771 23.0751C16.6456 23.1047 16.9549 23.18 16.9065 23.3602L16.9033 23.3734C16.8915 23.4224 16.8646 23.5348 16.8071 23.5579C16.628 23.579 16.4475 23.5858 16.2673 23.5781H15.7426C15.5327 23.5781 15.4237 23.5862 15.3602 23.6319C15.2966 23.6776 15.2594 23.7583 15.2028 23.9802H16.1692C17.0446 23.9802 17.4119 23.6615 17.4892 23.3387C17.6166 22.8673 17.1146 22.7889 16.6554 22.7173C16.5225 22.6966 16.3932 22.6764 16.2838 22.6474C16.132 22.6044 16.085 22.5345 16.1016 22.4672L16.1032 22.4609L16.1072 22.444C16.1201 22.3875 16.1477 22.267 16.2051 22.2453C16.3699 22.22 16.537 22.2115 16.7036 22.2198H17.2696C17.6687 22.2198 17.7004 22.1942 17.7998 21.8257H16.8237C16.0381 21.8257 15.6073 22.0651 15.5079 22.4712H15.5107ZM11.9038 21.8257H12.2545L12.7667 23.9735H12.4147C12.1692 23.9617 12.1531 23.8928 12.1182 23.7434L12.115 23.7301L12.0833 23.5794H10.86L10.7509 23.7301L10.7445 23.7387C10.6782 23.827 10.6365 23.8827 10.5815 23.9179C10.4875 23.978 10.3551 23.9779 9.99599 23.9776L9.91147 23.9775L11.3377 22.0947C11.5269 21.8391 11.5586 21.8257 11.9038 21.8257ZM11.8251 22.2278L11.1113 23.2177H12.0143L11.8251 22.2278ZM18.0178 24.2101H17.9074L17.9212 24.1455H18.2167L18.2028 24.2101H18.0965L18.0358 24.4938H17.9585L18.0178 24.2101ZM18.364 24.147H18.2563L18.1859 24.4953H18.259L18.3115 24.2183L18.346 24.4953H18.4054L18.5545 24.2183L18.491 24.4953H18.5642L18.6387 24.147H18.5297L18.3916 24.3985L18.364 24.147Z" fill="#78D6FF"></path></g></g><defs><clipPath id="clip0_132_323"><rect width="21" height="25" fill="white" transform="translate(0 0.0532227)"></rect></clipPath></defs></svg>