<svg xmlns="http://www.w3.org/2000/svg" width="77" height="26" viewBox="0 0 77 26" fill="none"><g clip-path="url(#clip0_132_334)"><mask id="mask0_132_334" style="mask-type:luminance" maskUnits="userSpaceOnUse" x="0" y="0" width="77" height="26"><path d="M0.0258789 0.0532227H76.2409V25.0532H0.0258789V0.0532227Z" fill="white"></path></mask><g mask="url(#mask0_132_334)"><path fill-rule="evenodd" clip-rule="evenodd" d="M0.026123 0.0537109V25.0513H7.92171V16.0255H13.4078L15.5406 10.5616H7.92171V5.48941H17.195L19.2175 0.0537109H0.026123Z" fill="#036AFF"></path><path fill-rule="evenodd" clip-rule="evenodd" d="M21.632 0.0532227L21.6179 25.0508H29.4221V0.0532227H21.632Z" fill="#036AFF"></path><path fill-rule="evenodd" clip-rule="evenodd" d="M60.0474 16.8856L63.0537 6.47733L66.1678 16.8856H60.0474ZM67.2324 0.0532227H59.1293L50.1445 25.0532H57.6872L58.658 21.6916H67.4505L68.4671 25.0532H76.2407L67.2324 0.0532227Z" fill="#036AFF"></path><path fill-rule="evenodd" clip-rule="evenodd" d="M34.8108 0.0532227V25.0508H42.7017V16.025H48.182L50.33 10.5611H42.7017V5.48891H51.9785L54.0163 0.0532227H34.8108Z" fill="#036AFF"></path></g></g><defs><clipPath id="clip0_132_334"><rect width="77" height="25" fill="white" transform="translate(0 0.0532227)"></rect></clipPath></defs></svg>