<svg xmlns="http://www.w3.org/2000/svg" width="56" height="26" viewBox="0 0 56 26" fill="none"><g clip-path="url(#clip0_132_343)"><mask id="mask0_132_343" style="mask-type:luminance" maskUnits="userSpaceOnUse" x="0" y="0" width="56" height="26"><path d="M0.0258789 0.0532227H55.0259V25.0532H0.0258789V0.0532227Z" fill="white"></path></mask><g mask="url(#mask0_132_343)"><path d="M47.784 12.3283C46.5707 11.7782 45.3924 11.122 44.2101 11.122C43.9427 11.122 43.6423 11.1277 43.3186 11.2234C43.337 10.2141 43.8099 8.69302 45.1065 7.50677C45.904 6.7778 46.7742 6.40088 47.6464 6.40088C48.348 6.40088 49.3044 6.56638 50.0506 6.87346C52.1408 7.73732 53.105 9.03455 53.105 10.2973C53.105 10.4657 53.0943 10.6322 53.0643 10.7986C52.8589 11.9533 51.9208 13.0659 50.444 13.0659C49.5806 13.0659 49.0001 12.9052 47.784 12.3283Z" fill="#FFE600"></path><path d="M49.0654 17.4577C52.2798 17.4577 54.9475 14.7628 54.9475 11.5494C54.9475 9.80823 54.2866 8.39716 53.1548 7.36684C51.7962 6.1318 50.0064 5.63721 48.8425 5.63721C48.5838 5.63721 48.2718 5.67452 48.013 5.74627C47.919 5.77401 47.8657 5.81993 47.8657 5.87924C47.8657 5.95865 47.9307 6.00648 48.1662 6.01987C49.8978 6.11362 51.8069 6.90478 52.899 8.01163C53.8399 8.96255 54.0841 9.97278 54.0502 10.6893C53.9649 12.5606 52.5898 13.8779 50.6711 13.8779C49.8901 13.8779 49.0741 13.6043 48.3716 13.2809C46.9045 12.6017 45.6563 11.6364 44.133 11.6364C43.4498 11.6364 43.3054 11.8593 43.3054 12.1559C43.3054 13.279 43.9149 14.7044 45.0507 15.7979C46.0226 16.7325 47.3735 17.4577 49.0654 17.4577Z" fill="#FFE600"></path><path d="M41.768 7.7138C28.9872 0.483387 18.5119 -1.55812 10.6316 1.64668C2.48094 4.9615 0.183336 12.8979 0.161048 12.9773C0.11841 13.1284 0.198843 13.2853 0.346138 13.3408C0.493432 13.3973 0.660107 13.3341 0.731816 13.1954C2.93542 8.88857 6.43271 5.9459 11.1268 4.44873C14.9031 3.24334 19.4605 2.96209 24.674 3.61165C33.5853 4.72233 41.4094 8.21796 41.4879 8.25335C41.6362 8.32032 41.8135 8.25909 41.8891 8.11559C41.9627 7.97114 41.9104 7.79416 41.768 7.7138Z" fill="#07C790"></path><path d="M5.41772 25.0234V10.8648C5.41772 10.2277 5.816 9.99902 6.36642 9.99902H9.44701V22.0453C9.44701 22.3839 9.40826 22.713 9.33074 22.9895C8.97897 24.2379 7.83937 25.0234 6.01853 25.0234H5.41772Z" fill="#07C790"></path><path d="M20.4516 12.803H23.6824C24.8016 12.803 25.1825 12.5323 25.3259 11.9774L25.7755 9.99902H13.2942C12.5471 9.99902 12.2011 10.1894 12.05 10.8371L11.5674 12.803H16.4271V25.0233H16.4281H17.026C18.8081 25.0233 20.0049 24.2848 20.3489 22.9483C20.4303 22.6346 20.4516 22.2911 20.4516 22.0367V12.803Z" fill="#07C790"></path><path d="M28.8808 9.99951C28.0668 9.99951 27.8091 10.2856 27.8091 10.9572V25.0238H28.4118C30.3964 25.0238 31.4818 24.1055 31.7676 22.8197C31.818 22.5882 31.8432 22.2543 31.8432 22.0008V18.8218H34.4305C35.3017 18.8218 35.7048 18.597 35.9248 17.9628L36.5111 16.0179H31.8461V12.8131H36.2233C37.297 12.8131 37.6177 12.4945 37.8532 11.7493L38.4056 9.99951H28.8808Z" fill="#07C790"></path></g></g><defs><clipPath id="clip0_132_343"><rect width="56" height="25" fill="white" transform="translate(0 0.0532227)"></rect></clipPath></defs></svg>