<svg xmlns="http://www.w3.org/2000/svg" width="150" height="33" viewBox="0 0 150 33" fill="none"><g clip-path="url(#clip0_130_154)"><rect x="0.5" y="0.0532227" width="149" height="32" rx="2" fill="white"></rect><g filter="url(#filter0_d_130_154)"><rect x="3.38672" y="3.05322" width="51" height="26" rx="3" fill="url(#paint0_linear_130_154)"></rect><path d="M9.36672 21.5532V11.4732H12.6287C12.7081 11.4732 12.8714 11.4756 13.1187 11.4802C13.3661 11.4849 13.6041 11.5012 13.8327 11.5292C14.6447 11.6272 15.3331 11.9096 15.8977 12.3762C16.4624 12.8429 16.8917 13.4356 17.1857 14.1542C17.4797 14.8729 17.6267 15.6592 17.6267 16.5132C17.6267 17.3672 17.4797 18.1536 17.1857 18.8722C16.8917 19.5909 16.4624 20.1836 15.8977 20.6502C15.3331 21.1169 14.6447 21.3992 13.8327 21.4972C13.6041 21.5252 13.3661 21.5416 13.1187 21.5462C12.8714 21.5509 12.7081 21.5532 12.6287 21.5532H9.36672ZM11.2987 19.7612H12.6287C12.7547 19.7612 12.9251 19.7589 13.1397 19.7542C13.3544 19.7449 13.5481 19.7239 13.7207 19.6912C14.1594 19.6026 14.5164 19.3972 14.7917 19.0752C15.0717 18.7532 15.2771 18.3659 15.4077 17.9132C15.5431 17.4606 15.6107 16.9939 15.6107 16.5132C15.6107 16.0092 15.5407 15.5309 15.4007 15.0782C15.2654 14.6256 15.0577 14.2429 14.7777 13.9302C14.4977 13.6176 14.1454 13.4192 13.7207 13.3352C13.5481 13.2979 13.3544 13.2769 13.1397 13.2722C12.9251 13.2676 12.7547 13.2652 12.6287 13.2652H11.2987V19.7612ZM19.0262 21.5532V11.4732H20.7342L24.0662 18.1652L27.3982 11.4732H29.1062V21.5532H27.3282V15.5332L24.4022 21.5532H23.7302L20.8042 15.5332V21.5532H19.0262ZM35.1171 21.7632C34.1091 21.7632 33.2388 21.5439 32.5061 21.1052C31.7781 20.6666 31.2158 20.0529 30.8191 19.2642C30.4271 18.4756 30.2311 17.5586 30.2311 16.5132C30.2311 15.4679 30.4271 14.5509 30.8191 13.7622C31.2158 12.9736 31.7781 12.3599 32.5061 11.9212C33.2388 11.4826 34.1091 11.2632 35.1171 11.2632C36.2744 11.2632 37.2451 11.5502 38.0291 12.1242C38.8178 12.6982 39.3731 13.4752 39.6951 14.4552L37.7771 14.9872C37.5904 14.3759 37.2754 13.9022 36.8321 13.5662C36.3888 13.2256 35.8171 13.0552 35.1171 13.0552C34.4778 13.0552 33.9434 13.1976 33.5141 13.4822C33.0894 13.7669 32.7698 14.1682 32.5551 14.6862C32.3404 15.2042 32.2331 15.8132 32.2331 16.5132C32.2331 17.2132 32.3404 17.8222 32.5551 18.3402C32.7698 18.8582 33.0894 19.2596 33.5141 19.5442C33.9434 19.8289 34.4778 19.9712 35.1171 19.9712C35.8171 19.9712 36.3888 19.8009 36.8321 19.4602C37.2754 19.1196 37.5904 18.6459 37.7771 18.0392L39.6951 18.5712C39.3731 19.5512 38.8178 20.3282 38.0291 20.9022C37.2451 21.4762 36.2744 21.7632 35.1171 21.7632ZM39.983 21.5532L43.063 11.4732H45.905L48.985 21.5532H47.025L44.281 12.6632H44.645L41.943 21.5532H39.983ZM41.831 19.4532V17.6752H47.151V19.4532H41.831Z" fill="white"></path></g><rect x="56.8867" y="3.55322" width="89" height="25" rx="2.5" fill="#2C2E33"></rect><rect x="56.8867" y="3.55322" width="89" height="25" rx="2.5" stroke="#2F2456"></rect><path d="M62.3667 21.5532V11.4732H66.6227C66.7207 11.4732 66.8514 11.4779 67.0147 11.4872C67.1827 11.4919 67.3321 11.5059 67.4627 11.5292C68.0647 11.6226 68.5571 11.8209 68.9397 12.1242C69.3271 12.4276 69.6117 12.8102 69.7937 13.2722C69.9757 13.7296 70.0667 14.2406 70.0667 14.8052C70.0667 15.3699 69.9734 15.8832 69.7867 16.3452C69.6047 16.8026 69.3201 17.1829 68.9327 17.4862C68.5501 17.7896 68.0601 17.9879 67.4627 18.0812C67.3321 18.0999 67.1827 18.1139 67.0147 18.1232C66.8467 18.1326 66.7161 18.1372 66.6227 18.1372H64.2707V21.5532H62.3667ZM64.2707 16.3592H66.5387C66.6367 16.3592 66.7441 16.3546 66.8607 16.3452C66.9774 16.3359 67.0847 16.3172 67.1827 16.2892C67.4394 16.2192 67.6377 16.1026 67.7777 15.9392C67.9177 15.7712 68.0134 15.5869 68.0647 15.3862C68.1207 15.1809 68.1487 14.9872 68.1487 14.8052C68.1487 14.6232 68.1207 14.4319 68.0647 14.2312C68.0134 14.0259 67.9177 13.8416 67.7777 13.6782C67.6377 13.5102 67.4394 13.3912 67.1827 13.3212C67.0847 13.2932 66.9774 13.2746 66.8607 13.2652C66.7441 13.2559 66.6367 13.2512 66.5387 13.2512H64.2707V16.3592ZM71.1922 21.5532V11.4732H75.4482C75.5462 11.4732 75.6769 11.4779 75.8402 11.4872C76.0082 11.4919 76.1575 11.5059 76.2882 11.5292C76.8902 11.6226 77.3825 11.8209 77.7652 12.1242C78.1525 12.4276 78.4372 12.8102 78.6192 13.2722C78.8012 13.7296 78.8922 14.2406 78.8922 14.8052C78.8922 15.6499 78.6822 16.3732 78.2622 16.9752C77.8422 17.5726 77.1842 17.9412 76.2882 18.0812L75.4482 18.1372H73.0962V21.5532H71.1922ZM76.8762 21.5532L74.8882 17.4512L76.8482 17.0732L79.0322 21.5532H76.8762ZM73.0962 16.3592H75.3642C75.4622 16.3592 75.5695 16.3546 75.6862 16.3452C75.8029 16.3359 75.9102 16.3172 76.0082 16.2892C76.2649 16.2192 76.4632 16.1026 76.6032 15.9392C76.7432 15.7712 76.8389 15.5869 76.8902 15.3862C76.9462 15.1809 76.9742 14.9872 76.9742 14.8052C76.9742 14.6232 76.9462 14.4319 76.8902 14.2312C76.8389 14.0259 76.7432 13.8416 76.6032 13.6782C76.4632 13.5102 76.2649 13.3912 76.0082 13.3212C75.9102 13.2932 75.8029 13.2746 75.6862 13.2652C75.5695 13.2559 75.4622 13.2512 75.3642 13.2512H73.0962V16.3592ZM84.6171 21.7632C83.6091 21.7632 82.7388 21.5439 82.0061 21.1052C81.2781 20.6666 80.7158 20.0529 80.3191 19.2642C79.9271 18.4756 79.7311 17.5586 79.7311 16.5132C79.7311 15.4679 79.9271 14.5509 80.3191 13.7622C80.7158 12.9736 81.2781 12.3599 82.0061 11.9212C82.7388 11.4826 83.6091 11.2632 84.6171 11.2632C85.6251 11.2632 86.4931 11.4826 87.2211 11.9212C87.9538 12.3599 88.5161 12.9736 88.9081 13.7622C89.3048 14.5509 89.5031 15.4679 89.5031 16.5132C89.5031 17.5586 89.3048 18.4756 88.9081 19.2642C88.5161 20.0529 87.9538 20.6666 87.2211 21.1052C86.4931 21.5439 85.6251 21.7632 84.6171 21.7632ZM84.6171 19.9712C85.2564 19.9806 85.7884 19.8429 86.2131 19.5582C86.6378 19.2736 86.9551 18.8699 87.1651 18.3472C87.3798 17.8246 87.4871 17.2132 87.4871 16.5132C87.4871 15.8132 87.3798 15.2066 87.1651 14.6932C86.9551 14.1799 86.6378 13.7809 86.2131 13.4962C85.7884 13.2116 85.2564 13.0646 84.6171 13.0552C83.9778 13.0459 83.4458 13.1836 83.0211 13.4682C82.5964 13.7529 82.2768 14.1566 82.0621 14.6792C81.8521 15.2019 81.7471 15.8132 81.7471 16.5132C81.7471 17.2132 81.8521 17.8199 82.0621 18.3332C82.2768 18.8466 82.5964 19.2456 83.0211 19.5302C83.4458 19.8149 83.9778 19.9619 84.6171 19.9712ZM92.685 21.5532V13.2512H89.507V11.4732H97.767V13.2512H94.589V21.5532H92.685ZM98.612 21.5532V11.4732H105.192V13.2512H100.516V15.4072H104.352V17.1852H100.516V19.7752H105.192V21.5532H98.612ZM110.56 21.7632C109.552 21.7632 108.682 21.5439 107.949 21.1052C107.221 20.6666 106.659 20.0529 106.262 19.2642C105.87 18.4756 105.674 17.5586 105.674 16.5132C105.674 15.4679 105.87 14.5509 106.262 13.7622C106.659 12.9736 107.221 12.3599 107.949 11.9212C108.682 11.4826 109.552 11.2632 110.56 11.2632C111.718 11.2632 112.688 11.5502 113.472 12.1242C114.261 12.6982 114.816 13.4752 115.138 14.4552L113.22 14.9872C113.034 14.3759 112.719 13.9022 112.275 13.5662C111.832 13.2256 111.26 13.0552 110.56 13.0552C109.921 13.0552 109.387 13.1976 108.957 13.4822C108.533 13.7669 108.213 14.1682 107.998 14.6862C107.784 15.2042 107.676 15.8132 107.676 16.5132C107.676 17.2132 107.784 17.8222 107.998 18.3402C108.213 18.8582 108.533 19.2596 108.957 19.5442C109.387 19.8289 109.921 19.9712 110.56 19.9712C111.26 19.9712 111.832 19.8009 112.275 19.4602C112.719 19.1196 113.034 18.6459 113.22 18.0392L115.138 18.5712C114.816 19.5512 114.261 20.3282 113.472 20.9022C112.688 21.4762 111.718 21.7632 110.56 21.7632ZM118.738 21.5532V13.2512H115.56V11.4732H123.82V13.2512H120.642V21.5532H118.738ZM124.665 21.5532V11.4732H131.245V13.2512H126.569V15.4072H130.405V17.1852H126.569V19.7752H131.245V21.5532H124.665ZM132.642 21.5532V11.4732H135.904C135.984 11.4732 136.147 11.4756 136.394 11.4802C136.642 11.4849 136.88 11.5012 137.108 11.5292C137.92 11.6272 138.609 11.9096 139.173 12.3762C139.738 12.8429 140.167 13.4356 140.461 14.1542C140.755 14.8729 140.902 15.6592 140.902 16.5132C140.902 17.3672 140.755 18.1536 140.461 18.8722C140.167 19.5909 139.738 20.1836 139.173 20.6502C138.609 21.1169 137.92 21.3992 137.108 21.4972C136.88 21.5252 136.642 21.5416 136.394 21.5462C136.147 21.5509 135.984 21.5532 135.904 21.5532H132.642ZM134.574 19.7612H135.904C136.03 19.7612 136.201 19.7589 136.415 19.7542C136.63 19.7449 136.824 19.7239 136.996 19.6912C137.435 19.6026 137.792 19.3972 138.067 19.0752C138.347 18.7532 138.553 18.3659 138.683 17.9132C138.819 17.4606 138.886 16.9939 138.886 16.5132C138.886 16.0092 138.816 15.5309 138.676 15.0782C138.541 14.6256 138.333 14.2429 138.053 13.9302C137.773 13.6176 137.421 13.4192 136.996 13.3352C136.824 13.2979 136.63 13.2769 136.415 13.2722C136.201 13.2676 136.03 13.2652 135.904 13.2652H134.574V19.7612Z" fill="white"></path></g><defs><filter id="filter0_d_130_154" x="-4.61328" y="-0.946777" width="67" height="42" filterUnits="userSpaceOnUse" color-interpolation-filters="sRGB"><feGaussianBlur stdDeviation="4"></feGaussianBlur></filter><linearGradient id="paint0_linear_130_154" x1="28.8867" y1="3.05322" x2="28.8867" y2="29.0532" gradientUnits="userSpaceOnUse"><stop stop-color="#59D069"></stop><stop offset="1" stop-color="#23902F"></stop></linearGradient><clipPath id="clip0_130_154"><rect x="0.5" y="0.0532227" width="149" height="32" rx="2" fill="white"></rect></clipPath></defs></svg>