<svg xmlns="http://www.w3.org/2000/svg" width="74" height="26" viewBox="0 0 74 26" fill="none"><g clip-path="url(#clip0_132_307)"><mask id="mask0_132_307" style="mask-type:luminance" maskUnits="userSpaceOnUse" x="0" y="0" width="74" height="26"><path d="M0.358887 0.0532227H73.8709V25.0532H0.358887V0.0532227Z" fill="white"></path></mask><g mask="url(#mask0_132_307)"><path d="M6.01266 0.360554H15.3996L10.4738 16.9227C10.1281 18.0846 10.8616 19.0428 12.0701 19.0428C13.279 19.0428 14.5235 18.0846 14.8688 16.9227L19.7947 0.360554L28.1186 0.360352L22.431 21.5321C21.929 23.3996 19.9341 24.9282 17.9978 24.9282H3.59625C1.29513 24.9282 -0.0996883 23.1122 0.49677 20.8916L6.01266 0.360554Z" fill="#FA4031"></path><path d="M38.5595 9.40771L48.199 9.40792L46.448 15.1425H36.8051L34.1283 24.9285H25.0659L29.4971 9.40771H38.5595Z" fill="#FA4031"></path><path d="M57.3145 0.111816H69.5737C71.367 0.111816 74.411 1.54863 73.7881 3.83354L73.5426 4.73315H62.6031C62.0412 4.73315 61.4565 5.18374 61.3046 5.73416L57.9047 18.0459C57.7528 18.5965 58.0882 19.0468 58.6502 19.0468H69.6395L68.8427 21.9683C68.3815 23.6609 66.5629 25.0532 64.7705 25.0532H51.8284C49.5473 25.0532 48.1459 23.2868 48.7144 21.1286L53.4876 3.0102C53.9075 1.41591 55.6296 0.111816 57.3145 0.111816Z" fill="#FA4031"></path><path d="M49.1664 6.06054H39.5466L39.5418 6.07707H30.4795L32.223 0.0532227C38.4494 0.0532227 44.6759 0.0532227 50.9019 0.0532227L49.1664 6.06054Z" fill="#FA4031"></path></g></g><defs><clipPath id="clip0_132_307"><rect width="74" height="25" fill="white" transform="translate(0 0.0532227)"></rect></clipPath></defs></svg>