<svg xmlns="http://www.w3.org/2000/svg" width="34" height="26" viewBox="0 0 34 26" fill="none"><g clip-path="url(#clip0_132_316)"><mask id="mask0_132_316" style="mask-type:luminance" maskUnits="userSpaceOnUse" x="0" y="0" width="34" height="26"><path d="M0.358887 0.0532227H33.6919V25.0532H0.358887V0.0532227Z" fill="white"></path></mask><g mask="url(#mask0_132_316)"><path d="M27.1933 15.2146C27.1933 15.8073 26.711 16.288 26.1159 16.288C25.5209 16.288 25.0386 15.8073 25.0386 15.2146C25.0386 14.6218 25.5209 14.1411 26.1159 14.1411C26.711 14.1411 27.1933 14.6218 27.1933 15.2146Z" fill="#F3ED0E"></path><path fill-rule="evenodd" clip-rule="evenodd" d="M1.64157 11.1496C3.45275 7.20905 7.58814 3.72596 12.7042 1.83165C15.3274 0.860465 18.1015 0.347168 20.7273 0.347168C26.5473 0.347168 31.1347 2.79225 32.7012 6.72834C33.5868 8.95426 33.4472 11.4544 32.2962 13.9577C30.485 17.8979 26.3496 21.3809 21.234 23.2748C18.6104 24.2464 15.8358 24.7593 13.2105 24.7593C7.39091 24.7593 2.80304 22.3143 1.23703 18.379C0.351412 16.1527 0.491024 13.653 1.64157 11.1496ZM22.4093 8.83461C22.9543 8.86109 23.3601 9.22121 23.3601 9.75529C23.3601 10.2882 22.9358 10.6768 22.4 10.6915C22.3575 10.6943 22.3323 10.6959 22.2259 10.6959C22.0602 10.6955 19.7554 10.6972 19.7554 10.6972V15.1172L19.7486 15.2651C19.7272 15.8216 19.3462 16.2465 18.7894 16.2465C18.2512 16.2465 17.8281 15.8098 17.813 15.2671L17.8063 15.1241L17.8058 10.6931L15.3353 10.6927C15.3353 10.6927 13.2146 15.327 13.1477 15.4602C13.0863 15.5824 13.0313 15.6794 13.0031 15.7206C12.7827 16.0403 12.5851 16.2444 12.1734 16.2444C11.7756 16.2444 11.5372 16.042 11.3462 15.7258C11.2836 15.6224 11.2495 15.5613 11.2134 15.4904C11.1776 15.4203 9.64608 12.0647 9.64608 12.0647L8.1402 15.3649C8.1402 15.3649 8.04432 15.5759 7.99302 15.6647C7.76594 16.0566 7.46989 16.2444 7.10614 16.2444C6.75501 16.2444 6.45686 16.0403 6.2466 15.6676C6.24239 15.6602 6.23817 15.6527 6.23394 15.6453C6.19499 15.5767 6.15505 15.5064 6.1175 15.4211C5.91677 14.9834 5.41277 13.8858 4.91934 12.8112C4.4421 11.7719 3.97474 10.7541 3.80128 10.3757C3.76065 10.2868 3.75142 10.2636 3.73416 10.2203L3.73231 10.2156C3.53425 9.72595 3.64863 9.43712 3.73399 9.2925C3.90388 9.00408 4.23483 8.80609 4.58512 8.82605C5.0641 8.85253 5.3122 9.11815 5.52036 9.55608L5.59143 9.69051L7.10488 12.9956C7.10488 12.9956 8.56072 9.80784 8.61581 9.69377C8.67089 9.57971 8.70958 9.5019 8.70958 9.5019C8.98544 8.97149 9.28023 8.82524 9.6444 8.82524C10.0334 8.82524 10.3399 9.02811 10.5838 9.52186C10.5838 9.52186 10.6335 9.61637 10.6839 9.72921C10.7369 9.84654 12.1747 12.9976 12.1747 12.9976L13.763 9.52226C13.763 9.52226 13.7991 9.43957 13.8576 9.34017C14.0186 9.02893 14.2991 8.83339 14.6864 8.82687L14.6935 8.82675C14.7593 8.82562 14.7816 8.82524 14.9059 8.82524L22.2259 8.82483C22.3156 8.82483 22.384 8.832 22.4036 8.83406C22.4069 8.83441 22.4088 8.83461 22.4093 8.83461ZM30.0207 14.529L30.0816 14.6373L30.0834 14.6405C30.2063 14.8637 30.3163 15.0634 30.3163 15.3026C30.3163 15.8367 29.8941 16.2416 29.3605 16.2428C29.0081 16.2432 28.707 16.0289 28.4854 15.6896L28.4172 15.5845L26.1296 11.6081L23.8395 15.567L23.7545 15.6986C23.53 16.0314 23.2381 16.2432 22.8853 16.2428C22.3521 16.2416 21.9307 15.8326 21.9307 15.2985C21.9307 15.0582 22.0266 14.8822 22.1511 14.6548L22.2448 14.496L25.1902 9.50556L25.289 9.35565C25.4934 9.03422 25.7612 8.82646 26.1292 8.81872C26.4972 8.82646 26.7566 9.02567 26.961 9.33813L27.056 9.48479L30.0207 14.529Z" fill="#C755FF"></path></g></g><defs><clipPath id="clip0_132_316"><rect width="34" height="25" fill="white" transform="translate(0 0.0532227)"></rect></clipPath></defs></svg>